<svg xmlns="http://www.w3.org/2000/svg" viewBox="0 0 512 512" fill="#1a237e">
  <defs>
    <linearGradient id="crownGradient" x1="0%" y1="0%" x2="100%" y2="100%">
      <stop offset="0%" style="stop-color:#1a237e;stop-opacity:1" />
      <stop offset="50%" style="stop-color:#4527a0;stop-opacity:1" />
      <stop offset="100%" style="stop-color:#ffc107;stop-opacity:1" />
    </linearGradient>
  </defs>
  <path fill="url(#crownGradient)" d="M256 32c-13.3 0-24 10.7-24 24s10.7 24 24 24c13.3 0 24-10.7 24-24s-10.7-24-24-24zm-32 64L192 352h128L288 96h-64zm-96 32l-32 224h64l32-224h-64zm256 0h-64l32 224h64l-32-224zM96 160l-32 192h64l32-192H96zm320 0l32 192h64l-32-192h-64zM80 384c-8.8 0-16 7.2-16 16v64c0 8.8 7.2 16 16 16h352c8.8 0 16-7.2 16-16v-64c0-8.8-7.2-16-16-16H80z"/>
</svg>